<svg xmlns="http://www.w3.org/2000/svg" width="512" height="512" style="" viewBox="0 0 512 512" data-bbox="112.21089716348797 115.90912818986044 289.93210802506655 253.99199485701456">
  <defs transform="matrix(1.0442661046981812, 0, 0, 1.0442661046981812, -11.33211898803711, 7.669686794281006)">
    <linearGradient x1="4.76%" y1="22.25%" x2="20.72%" y2="3.23%" id="o_f07bi4mc7_3" gradientUnits="userSpaceOnUse">
      <stop offset="0%" stop-color="rgb(60, 109, 228)" stop-opacity="1.00" />
      <stop offset="100%" stop-color="rgb(240, 44, 251)" stop-opacity="1" />
    </linearGradient>
    <linearGradient x1="21.524023437500002%" y1="21.524023437500002%" x2="3.9531249999999996%" y2="3.9531249999999996%" id="o_f07bi4mc7_4" gradientUnits="userSpaceOnUse">
      <stop offset="0%" stop-color="rgb(60, 109, 228)" stop-opacity="1.00" />
      <stop offset="100%" stop-color="rgb(240, 44, 251)" stop-opacity="1.00" />
    </linearGradient>
    <linearGradient x1="4.76%" y1="22.25%" x2="20.72%" y2="3.23%" id="g_-490279693_3" gradientUnits="userSpaceOnUse">
      <stop offset="0%" stop-color="rgb(60, 109, 228)" stop-opacity="1.00" />
      <stop offset="74%" stop-color="rgb(240, 44, 251)" stop-opacity="1.00" />
    </linearGradient>
  </defs>
  <g transform="matrix(-1.053846836090088, 1.0282115936279297, -1.0282115936279297, -1.053846836090088, 376.25250244140625, 233.6260528564453)" fill="url(#o_f07bi4mc7_4)">
    <path fill="url(#o_f07bi4mc7_4)" d="M27.752,49a.946.946,0,0,0,0,.377A21.421,21.421,0,0,0,49.177,70.64H49.2A21.466,21.466,0,1,0,27.752,49Zm39.3-1.562H59.724a10.626,10.626,0,0,0-1.847-4.465l5.182-5.182A17.78,17.78,0,0,1,67.055,47.437Zm-4,13.147L57.877,55.4a10.625,10.625,0,0,0,1.847-4.465h7.331A17.778,17.778,0,0,1,63.059,60.584ZM31.327,50.937H38.65A10.626,10.626,0,0,0,40.5,55.4l-5.18,5.18A17.87,17.87,0,0,1,31.327,50.937Zm17.859-8.946A7.2,7.2,0,1,1,44.1,44.1,7.152,7.152,0,0,1,49.187,41.991ZM42.969,57.879a10.561,10.561,0,0,0,4.467,1.85v7.326a17.782,17.782,0,0,1-9.648-4Zm7.967,1.85A10.56,10.56,0,0,0,55.4,57.878l5.18,5.18a17.779,17.779,0,0,1-9.648,4ZM55.4,40.5a10.56,10.56,0,0,0-4.468-1.851V31.319a17.779,17.779,0,0,1,9.648,4Zm-7.968-1.851a10.561,10.561,0,0,0-4.467,1.85l-5.181-5.18a17.782,17.782,0,0,1,9.648-4ZM40.5,42.972a10.626,10.626,0,0,0-1.847,4.465H31.327a17.871,17.871,0,0,1,3.989-9.645Zm-7.562-12.51a1.749,1.749,0,0,1,0,2.475,22.973,22.973,0,1,0,10.371-5.97,1.75,1.75,0,0,1-.893-3.385,26.589,26.589,0,0,1,25.5,6.88,26.482,26.482,0,1,1-37.451,0A1.749,1.749,0,0,1,32.936,30.461Zm1.889-1.492a1.75,1.75,0,0,1,.583-2.4q.379-.231.764-.448a1.75,1.75,0,0,1,1.723,3.047q-.334.189-.664.39a1.748,1.748,0,0,1-2.405-.583ZM32.507,85.451l24.408,24.408a1.75,1.75,0,1,1-2.475,2.475L22.312,80.206a1.731,1.731,0,0,1-.125-.153c-.025-.031-.053-.06-.076-.093a1.734,1.734,0,0,1-.284-.7c-.006-.037-.007-.075-.011-.112a1.753,1.753,0,0,1-.007-.274c0-.022,0-.043,0-.064a2.025,2.025,0,0,0-2.239-2.239,1.728,1.728,0,0,1-1.488-.6,40.921,40.921,0,0,1-5.73-8.654,1.752,1.752,0,0,1,.033-1.61A2.025,2.025,0,0,0,11.2,62.757a1.75,1.75,0,0,1-1.14-1.14,41.136,41.136,0,0,1-1.806-9.37,1.75,1.75,0,0,1,.629-1.478,2.024,2.024,0,0,0,0-3.167,1.751,1.751,0,0,1-.628-1.477,41.093,41.093,0,0,1,2.062-10.167,1.75,1.75,0,0,1,1.165-1.117,2.026,2.026,0,0,0,1.245-2.925,1.749,1.749,0,0,1,0-1.616,41.031,41.031,0,0,1,5.355-7.894,1.736,1.736,0,0,1,1.488-.6,2.026,2.026,0,0,0,2.239-2.239,1.748,1.748,0,0,1,.6-1.489,40.977,40.977,0,0,1,8.652-5.73,1.752,1.752,0,0,1,1.611.033A2.024,2.024,0,0,0,35.616,11.2a1.749,1.749,0,0,1,1.14-1.14,41.194,41.194,0,0,1,9.37-1.805,1.75,1.75,0,0,1,.26,3.49,37.683,37.683,0,0,0-7.809,1.418,5.507,5.507,0,0,1-6.684,2.687A37.527,37.527,0,0,0,25.3,20.218,5.508,5.508,0,0,1,20.218,25.3a37.5,37.5,0,0,0-4.009,5.9,5.511,5.511,0,0,1-2.826,6.64,37.606,37.606,0,0,0-1.57,7.749,5.508,5.508,0,0,1,0,7.188A37.688,37.688,0,0,0,13.164,59.8a5.508,5.508,0,0,1,2.687,6.684,37.376,37.376,0,0,0,4.367,6.593A5.507,5.507,0,0,1,25.3,78.156a37.531,37.531,0,0,0,5.9,4.008,5.51,5.51,0,0,1,6.641,2.827,37.66,37.66,0,0,0,8.541,1.637c.032,0,.062.012.094.017a1.734,1.734,0,0,1,.185.033c.054.013.105.029.157.047a1.594,1.594,0,0,1,.315.145c.047.027.092.056.137.088a1.733,1.733,0,0,1,.145.119c.024.021.051.037.074.06l12.94,12.941a1.75,1.75,0,1,1-2.475,2.475l-12.5-12.5a41.082,41.082,0,0,1-9.5-1.991,1.751,1.751,0,0,1-1.117-1.167,2.057,2.057,0,0,0-1.159-1.33A2.007,2.007,0,0,0,32.507,85.451Zm31.313,31.312a1.75,1.75,0,1,1-2.475,2.475l-2.207-2.207a1.75,1.75,0,0,1,2.475-2.475ZM84.8,107.885a1.75,1.75,0,1,1-2.475,2.475L66.484,94.515a1.75,1.75,0,0,1,2.475-2.475Zm4.473,4.473a1.75,1.75,0,0,1-2.477,2.474l-.656-.657A1.75,1.75,0,0,1,88.62,111.7Zm20.582-55.442L85.88,32.937a2,2,0,0,0,1.294,2.679,1.75,1.75,0,0,1,1.14,1.14,41.136,41.136,0,0,1,1.806,9.37A1.75,1.75,0,0,1,89.49,47.6a2.024,2.024,0,0,0,0,3.166,1.75,1.75,0,0,1,.629,1.478,41.167,41.167,0,0,1-1.506,8.335L110.36,82.329a1.75,1.75,0,1,1-2.475,2.475L86.695,63.613a2,2,0,0,0-1.049,2.844,1.748,1.748,0,0,1,0,1.615,40.935,40.935,0,0,1-5.355,7.895A1.735,1.735,0,0,1,79,76.561l23.729,24.179a1.75,1.75,0,1,1-2.5,2.451L76.558,79.07a1.741,1.741,0,0,1-.592,1.224A41.1,41.1,0,0,1,70.3,84.4c-.972.583-1.977,1.132-2.988,1.629A1.748,1.748,0,0,1,65.7,85.99a2.025,2.025,0,0,0-2.944,1.184,1.749,1.749,0,0,1-1.14,1.14,41.178,41.178,0,0,1-7.045,1.566,1.75,1.75,0,1,1-.457-3.47,37.737,37.737,0,0,0,5.681-1.2,5.509,5.509,0,0,1,6.685-2.687c.683-.354,1.358-.732,2.018-1.128a37.6,37.6,0,0,0,4.575-3.239,5.522,5.522,0,0,1,1.6-3.484l.01-.008,0,0c.011-.01.023-.017.034-.028a5.522,5.522,0,0,1,3.439-1.559,37.467,37.467,0,0,0,4.009-5.9,5.508,5.508,0,0,1,2.825-6.64,37.643,37.643,0,0,0,1.571-7.748,5.509,5.509,0,0,1,0-7.188,37.687,37.687,0,0,0-1.352-7.015,5.509,5.509,0,0,1-2.687-6.685A37.391,37.391,0,0,0,78.155,25.3a5.509,5.509,0,0,1-5.082-5.083,37.529,37.529,0,0,0-5.9-4.008,5.509,5.509,0,0,1-6.64-2.826,37.655,37.655,0,0,0-8.541-1.638,1.75,1.75,0,0,1,.26-3.49,41.121,41.121,0,0,1,10.167,2.063,1.752,1.752,0,0,1,1.117,1.165,2.024,2.024,0,0,0,2.924,1.245,1.752,1.752,0,0,1,1.615,0,40.976,40.976,0,0,1,7.9,5.355,1.751,1.751,0,0,1,.6,1.489A2.025,2.025,0,0,0,78.8,21.808c.022,0,.043,0,.066,0a1.746,1.746,0,0,1,.258.006c.046,0,.092.005.138.013a1.753,1.753,0,0,1,.29.079c.04.014.08.029.119.046a1.726,1.726,0,0,1,.28.155c.039.027.074.06.111.091a1.722,1.722,0,0,1,.139.114l32.128,32.128a1.75,1.75,0,1,1-2.475,2.475Zm9.379,6.9a1.749,1.749,0,0,1-2.475,0l-2.207-2.207a1.75,1.75,0,0,1,2.475-2.475l2.207,2.207A1.749,1.749,0,0,1,119.237,63.819Zm-24.6-13.779,7.919,7.919a1.75,1.75,0,1,1-2.475,2.475l-7.919-7.919a1.75,1.75,0,0,1,2.475-2.475Zm20.2,36.761a1.75,1.75,0,0,1-2.477,2.474l-.656-.657a1.75,1.75,0,0,1,2.477-2.474Zm-4.915,21.232a1.75,1.75,0,1,1-2.5,2.452l-2.916-2.969a1.75,1.75,0,1,1,2.5-2.452Z" transform="matrix(1, 0, 0, 1, 0, 0)" />
  </g>
  <path text="Kadcars" fill="url(#o_f07bi4mc7_3)" space="preserve" text-anchor="middle" offset="0.5" font-scale="contain" font-size="48" font-family="Michroma" transform="matrix(1.141289472579956, 0, 0, 1.141289472579956, 256.32098388671875, 354.5074462890625)" data-fl-textpath="" font-weight="400" font-style="normal" d="M-115.76953125-20.25L-92.51953125-36L-85.76953125-36L-111.26953125-18.38L-85.01953125 0L-91.76953125 0L-115.76953125-16.5L-121.76953125-16.5L-121.76953125 0L-126.26953125 0L-126.26953125-36L-121.76953125-36L-121.76953125-20.25L-115.76953125-20.25ZM-56.639531250000005 0L-56.639531250000005-3.7Q-56.70953125-3.42 -57.68953125-2.3L-57.68953125-2.3Q-58.389531250000005-1.45 -59.56953125-0.81Q-60.73953125-0.16 -62.69953125 0.2Q-64.64953125 0.56 -67.83953125 0.56L-67.83953125 0.56Q-72.07953125 0.56 -75.07953125 0.13Q-78.07953125-0.3 -79.97953125-1.21Q-81.87953125-2.11 -82.75953125-3.52Q-83.63953125-4.92 -83.63953125-6.87L-83.63953125-6.87Q-83.63953125-8.91 -83.15953125-10.32Q-82.67953125-11.74 -81.74953125-12.7Q-80.81953125-13.66 -79.50953125-14.2Q-78.19953125-14.74 -76.51953125-15.02Q-74.84953125-15.3 -72.85953125-15.38Q-70.85953125-15.45 -68.60953125-15.45L-68.60953125-15.45Q-65.39953125-15.45 -63.249531250000004-15.18Q-61.08953125-14.91 -59.71953125-14.5Q-58.34953125-14.09 -57.639531250000005-13.62Q-56.93953125-13.15 -56.639531250000005-12.75L-56.639531250000005-12.75Q-56.639531250000005-15.38 -56.85953125-17.23Q-57.07953125-19.08 -57.58953125-20.32Q-58.08953125-21.56 -58.889531250000005-22.3Q-59.67953125-23.04 -60.83953125-23.41Q-61.999531250000004-23.79 -63.54953125-23.89Q-65.09953125-24 -67.08953125-24L-67.08953125-24Q-70.17953125-24 -72.21953125-23.85Q-74.25953125-23.7 -75.45953125-23.25Q-76.64953125-22.8 -77.13953125-22.02Q-77.63953125-21.23 -77.63953125-19.97L-77.63953125-19.97L-82.13953125-19.97Q-82.13953125-22.1 -81.37953125-23.58Q-80.60953125-25.05 -78.83953125-25.98Q-77.06953125-26.91 -74.18953125-27.33Q-71.30953124999999-27.75 -67.08953125-27.75L-67.08953125-27.75Q-62.96953125-27.75 -60.10953125-27.07Q-57.249531250000004-26.39 -55.47953125-24.68Q-53.70953125-22.97 -52.91953125-20.07Q-52.13953125-17.18 -52.13953125-12.75L-52.13953125-12.75L-52.13953125 0L-56.639531250000005 0ZM-67.08953125-3L-67.08953125-3Q-64.10953125-3 -62.10953125-3.28Q-60.10953125-3.56 -58.889531250000005-4.13Q-57.66953125-4.69 -57.149531249999995-5.53Q-56.639531250000005-6.38 -56.639531250000005-7.5L-56.639531250000005-7.5Q-56.639531250000005-8.63 -57.22953125-9.41Q-57.82953125-10.2 -59.22953125-10.69Q-60.61953125-11.18 -62.91953125-11.4Q-65.21953125-11.63 -68.58953125-11.63L-68.58953125-11.63Q-71.96953125-11.63 -74.03953125-11.51Q-76.10953125-11.39 -77.23953125-10.97Q-78.35953125-10.55 -78.74953125-9.73Q-79.13953125-8.91 -79.13953125-7.5L-79.13953125-7.5Q-79.13953125-6.09 -78.72953125-5.21Q-78.31953125-4.34 -77.04953125-3.84Q-75.78953125-3.35 -73.40953125-3.18Q-71.02953125-3 -67.08953125-3ZM-30.38671875 0.52L-30.38671875 0.52Q-34.88671875 0.52 -38.02671875-0.14Q-41.16671875-0.8 -43.13671875-2.39Q-45.10671875-3.98 -45.99671875-6.68Q-46.88671875-9.38 -46.88671875-13.45L-46.88671875-13.45Q-46.88671875-17.67 -45.99671875-20.44Q-45.10671875-23.2 -43.13671875-24.82Q-41.16671875-26.44 -38.02671875-27.09Q-34.88671875-27.75 -30.38671875-27.75L-30.38671875-27.75Q-27.19671875-27.75 -25.04671875-27.42Q-22.88671875-27.09 -21.51671875-26.6Q-20.14671875-26.11 -19.42671875-25.54Q-18.71671875-24.96 -18.38671875-24.47L-18.38671875-24.47L-18.38671875-36L-13.88671875-36L-13.88671875 0L-18.38671875 0L-18.38671875-4.01Q-18.38671875-4.01 -19.50671875-2.67L-19.50671875-2.67Q-20.49671875-1.71 -21.68671875-1.13Q-22.88671875-0.54 -25.04671875-0.01Q-27.19671875 0.52 -30.38671875 0.52ZM-30.38671875-3L-30.38671875-3Q-28.13671875-3 -26.37671875-3.11Q-24.61671875-3.21 -23.28671875-3.56Q-21.94671875-3.91 -21.02671875-4.61Q-20.09671875-5.3 -19.50671875-6.45Q-18.92671875-7.59 -18.65671875-9.29Q-18.38671875-10.99 -18.38671875-13.38L-18.38671875-13.38Q-18.38671875-15.87 -18.65671875-17.61Q-18.92671875-19.36 -19.50671875-20.54Q-20.09671875-21.73 -21.02671875-22.41Q-21.94671875-23.09 -23.28671875-23.45Q-24.61671875-23.81 -26.37671875-23.91Q-28.13671875-24 -30.38671875-24L-30.38671875-24Q-33.006718750000005-24 -34.92671875-23.84Q-36.83671875-23.67 -38.16671875-23.25Q-39.50671875-22.83 -40.33671875-22.08Q-41.16671875-21.33 -41.62671875-20.16Q-42.08671875-18.98 -42.23671875-17.33Q-42.38671875-15.68 -42.38671875-13.45L-42.38671875-13.45Q-42.38671875-11.25 -42.23671875-9.62Q-42.08671875-7.99 -41.62671875-6.83Q-41.16671875-5.67 -40.33671875-4.92Q-39.50671875-4.17 -38.16671875-3.75Q-36.83671875-3.33 -34.92671875-3.16Q-33.006718750000005-3 -30.38671875-3ZM-8.63671875-13.45L-8.63671875-13.45Q-8.63671875-16.27 -8.35671875-18.42Q-8.07671875-20.58 -7.356718750000001-22.17Q-6.64671875-23.77 -5.43671875-24.83Q-4.22671875-25.9 -2.38671875-26.55Q-0.5467187500000001-27.21  1.9832812499999992-27.49Q 4.51328125-27.77  7.88328125-27.77L 7.88328125-27.77Q 12.38328125-27.77  15.29328125-27.22Q 18.20328125-26.67  19.88328125-25.54Q 21.57328125-24.4  22.233281249999997-22.65Q 22.883281250000003-20.91  22.883281250000003-18.49L 22.883281250000003-18.49L 18.38328125-18.49Q 18.38328125-19.36  18.34328125-20.11Q 18.29328125-20.86  18.00328125-21.47Q 17.70328125-22.08  17.07328125-22.56Q 16.44328125-23.04  15.27328125-23.37Q 14.09328125-23.7  12.303281250000001-23.86Q 10.513281249999999-24.02  7.88328125-24.02L 7.88328125-24.02Q 4.88328125-24.02  2.8332812500000006-23.81Q 0.7832812499999999-23.6 -0.5467187500000001-23.12Q-1.88671875-22.64 -2.6167187500000004-21.83Q-3.33671875-21.02 -3.6667187500000002-19.85Q-3.9967187500000003-18.68 -4.05671875-17.1Q-4.11671875-15.52 -4.11671875-13.45L-4.11671875-13.45Q-4.11671875-11.44 -4.05671875-9.88Q-3.9967187500000003-8.32 -3.6667187500000002-7.16Q-3.33671875-6 -2.6167187500000004-5.2Q-1.88671875-4.41 -0.5467187500000001-3.91Q 0.7832812499999999-3.42  2.8332812500000006-3.21Q 4.88328125-3  7.88328125-3L 7.88328125-3Q 10.513281249999999-3  12.303281250000001-3.19Q 14.09328125-3.38  15.27328125-3.73Q 16.44328125-4.08  17.07328125-4.59Q 17.70328125-5.11  18.00328125-5.78Q 18.29328125-6.45  18.34328125-7.25Q 18.38328125-8.06  18.38328125-9L 18.38328125-9L 22.883281250000003-9Q 22.883281250000003-6.54  22.233281249999997-4.73Q 21.57328125-2.93  19.88328125-1.77Q 18.20328125-0.61  15.29328125-0.05Q 12.38328125 0.52  7.88328125 0.52L 7.88328125 0.52Q 4.51328125 0.52  1.9832812499999992 0.23Q-0.5467187500000001-0.05 -2.38671875-0.69Q-4.22671875-1.34 -5.43671875-2.39Q-6.64671875-3.45 -7.356718750000001-4.99Q-8.07671875-6.54 -8.35671875-8.64Q-8.63671875-10.73 -8.63671875-13.45ZM 55.766718749999995 0L 55.766718749999995-3.7Q 55.69671875-3.42  54.71671875-2.3L 54.71671875-2.3Q 54.016718749999995-1.45  52.83671875-0.81Q 51.66671875-0.16  49.70671875 0.2Q 47.756718750000005 0.56  44.56671875 0.56L 44.56671875 0.56Q 40.32671875 0.56  37.32671875 0.13Q 34.32671875-0.3  32.42671875-1.21Q 30.52671875-2.11  29.646718749999998-3.52Q 28.76671875-4.92  28.76671875-6.87L 28.76671875-6.87Q 28.76671875-8.91  29.24671875-10.32Q 29.72671875-11.74  30.65671875-12.7Q 31.58671875-13.66  32.89671875-14.2Q 34.20671875-14.74  35.88671875-15.02Q 37.55671875-15.3  39.54671875-15.38Q 41.54671875-15.45  43.79671875-15.45L 43.79671875-15.45Q 47.006718750000005-15.45  49.156718749999996-15.18Q 51.31671875-14.91  52.68671875-14.5Q 54.05671875-14.09  54.766718749999995-13.62Q 55.46671875-13.15  55.766718749999995-12.75L 55.766718749999995-12.75Q 55.766718749999995-15.38  55.54671875-17.23Q 55.32671875-19.08  54.81671875-20.32Q 54.31671875-21.56  53.516718749999995-22.3Q 52.72671875-23.04  51.56671875-23.41Q 50.406718749999996-23.79  48.85671875-23.89Q 47.30671875-24  45.31671875-24L 45.31671875-24Q 42.22671875-24  40.18671875-23.85Q 38.14671875-23.7  36.94671875-23.25Q 35.75671875-22.8  35.26671875-22.02Q 34.76671875-21.23  34.76671875-19.97L 34.76671875-19.97L 30.26671875-19.97Q 30.26671875-22.1  31.02671875-23.58Q 31.79671875-25.05  33.56671875-25.98Q 35.33671875-26.91  38.21671875-27.33Q 41.09671875-27.75  45.31671875-27.75L 45.31671875-27.75Q 49.43671875-27.75  52.29671875-27.07Q 55.156718749999996-26.39  56.92671875-24.68Q 58.69671875-22.97  59.48671875-20.07Q 60.26671875-17.18  60.26671875-12.75L 60.26671875-12.75L 60.26671875 0L 55.766718749999995 0ZM 45.31671875-3L 45.31671875-3Q 48.29671875-3  50.29671875-3.28Q 52.29671875-3.56  53.516718749999995-4.13Q 54.73671875-4.69  55.256718750000005-5.53Q 55.766718749999995-6.38  55.766718749999995-7.5L 55.766718749999995-7.5Q 55.766718749999995-8.63  55.17671875-9.41Q 54.57671875-10.2  53.17671875-10.69Q 51.78671875-11.18  49.48671875-11.4Q 47.18671875-11.63  43.81671875-11.63L 43.81671875-11.63Q 40.43671875-11.63  38.366718750000004-11.51Q 36.29671875-11.39  35.16671875-10.97Q 34.04671875-10.55  33.656718749999996-9.73Q 33.26671875-8.91  33.26671875-7.5L 33.26671875-7.5Q 33.26671875-6.09  33.67671875-5.21Q 34.08671875-4.34  35.35671875-3.84Q 36.616718750000004-3.35  38.99671875-3.18Q 41.37671875-3  45.31671875-3ZM 93.26953125-18.21L 89.51953125-18.21Q 89.51953125-19.9  89.26953125-21.01Q 89.02953125-22.13  88.10953125-22.79Q 87.19953125-23.46  85.40953125-23.73Q 83.60953125-24  80.51953125-24L 80.51953125-24Q 77.49953125-24  75.59953125-23.47Q 73.69953125-22.95  72.61953125-21.98Q 71.53953125-21.02  71.15953125-19.69Q 70.76953125-18.35  70.76953125-16.71L 70.76953125-16.71L 70.76953125 0L 66.26953125 0L 66.26953125-27L 70.76953125-27L 70.76953125-22.71Q 70.99953125-23.44  71.63953125-24.32Q 72.26953125-25.2  73.55953124999999-25.96Q 74.84953125-26.72  76.89953125-27.23Q 78.94953125-27.75  82.01953125-27.75L 82.01953125-27.75Q 85.53953125-27.75  87.73953125-27.13Q 89.93953125-26.51  91.16953125-25.3Q 92.39953125-24.09  92.83953125-22.31Q 93.26953125-20.53  93.26953125-18.21L 93.26953125-18.21ZM 112.01953125-12.3L 112.01953125-12.3Q 114.64953125-12.3  116.49953125-12.22Q 118.34953125-12.14  119.59953125-11.94Q 120.85953125-11.74  121.57953125-11.44Q 122.30953124999999-11.13  122.67953125-10.54Q 123.05953124999999-9.94  123.15953125-9.34Q 123.26953125-8.74  123.26953125-7.97L 123.26953125-7.97Q 123.26953125-7.13  123.15953125-6.43Q 123.05953124999999-5.74  122.65953125-5.18Q 122.25953125-4.62  121.48953125-4.22Q 120.71953125-3.82  119.37953125-3.54Q 118.03953125-3.26  116.05953124999999-3.13Q 114.07953125-3  111.26953125-3L 111.26953125-3Q 108.17953125-3  106.14953125-3.18Q 104.11953125-3.35  102.92953125-3.84Q 101.72953125000001-4.34  101.24953125-5.21Q 100.76953125-6.09  100.76953125-7.5L 100.76953125-7.5L 96.26953125-7.5Q 96.26953125-5.37  97.02953125-3.89Q 97.78953125-2.41  99.54953125-1.49Q 101.30953124999999-0.56  104.17953125-0.14Q 107.04953125 0.28  111.26953125 0.28L 111.26953125 0.28Q 114.64953125 0.28  117.18953125 0.08Q 119.72953125000001-0.12  121.55953124999999-0.53Q 123.38953125-0.94  124.58953125-1.61Q 125.79953125-2.27  126.49953124999999-3.2Q 127.20953125-4.13  127.48953125-5.33Q 127.76953125-6.54  127.76953125-8.06L 127.76953125-8.06Q 127.76953125-9.59  127.48953125-10.75Q 127.20953125-11.91  126.51953125-12.76Q 125.81953125-13.62  124.67953125-14.34Q 123.52953125-15.07  121.76953125-15.42Q 120.00953125-15.77  117.60953125-15.91Q 115.20953125-16.05  112.01953125-16.05L 112.01953125-16.05Q 109.39953125-16.05  107.53953125-16.07Q 105.68953125-16.08  104.43953125-16.21Q 103.17953125-16.34  102.45953125-16.59Q 101.72953125000001-16.85  101.35953125-17.34Q 100.97953125-17.84  100.87953125-18.6Q 100.76953125-19.36  100.76953125-20.16L 100.76953125-20.16Q 100.76953125-21.52  101.37953125-22.29Q 101.98953125-23.06  103.39953125-23.44Q 104.79953125-23.81  107.09953125-23.91Q 109.39953125-24  112.76953125-24L 112.76953125-24Q 115.85953125-24  117.88953125-23.82Q 119.91953125-23.65  121.10953125-23.19Q 122.30953124999999-22.73  122.78953125-21.94Q 123.26953125-21.14  123.26953125-19.88L 123.26953125-19.88L 127.76953125-19.88Q 127.76953125-21.91  127.08953125-23.39Q 126.40953125-24.87  124.70953125-25.84Q 123.00953125-26.81  120.11953125-27.28Q 117.21953125-27.75  112.76953125-27.75L 112.76953125-27.75Q 108.26953125-27.75  105.12953125-27.35Q 101.98953125-26.95  100.01953125-26.05Q 98.04953125-25.15  97.15953125-23.71Q 96.26953125-22.27  96.26953125-20.16L 96.26953125-20.16Q 96.26953125-18.61  96.54953125-17.29Q 96.82953125-15.96  97.50953125-15.06Q 98.18953125-14.16  99.34953125-13.62Q 100.50953125-13.08  102.25953125-12.79Q 103.99953125-12.49  106.41953125-12.4Q 108.82953125-12.3  112.01953125-12.3Z" />
  <path text="NFT" fill="url(#o_f07bi4mc7_3)" space="preserve" text-anchor="middle" offset="0.5" font-scale="contain" font-size="48" font-family="Michroma" transform="matrix(0.2474260926246643, 0, 0, 0.23558136820793152, 385.39245164976455, 370.68383827040134)" data-fl-textpath="" font-weight="400" font-style="normal" letter-spacing="0" path="M-70.69921875 0C-35.349609375 0 35.349609375 0 70.69921875 0" d="M-61.69921875-32.25L-61.69921875 0L-66.19921875 0L-66.19921875-36L-58.29921875-36L-25.29921875-4.5L-25.29921875-36L-20.79921875-36L-20.79921875 0L-26.79921875 0L-61.69921875-32.25ZM-7.30078125 0L-11.80078125 0L-11.80078125-36L 22.69921875-36L 22.69921875-32.25L-7.30078125-32.25L-7.30078125-20.25L 21.19921875-20.25L 21.19921875-16.5L-7.30078125-16.5L-7.30078125 0ZM 27.19921875-36L 67.69921875-36L 67.69921875-32.25L 49.69921875-32.25L 49.69921875 0L 45.19921875 0L 45.19921875-32.25L 27.19921875-32.25L 27.19921875-36Z" stroke="url(#g_-490279693_3)" stroke-width="3" />
</svg>