<?xml version="1.0" standalone="no"?>
<!DOCTYPE svg PUBLIC "-//W3C//DTD SVG 20010904//EN"
 "http://www.w3.org/TR/2001/REC-SVG-20010904/DTD/svg10.dtd">
<svg version="1.0" xmlns="http://www.w3.org/2000/svg"
 width="1284.000000pt" height="666.000000pt" viewBox="0 0 1284.000000 666.000000"
 preserveAspectRatio="xMidYMid meet">

<g transform="translate(0.000000,666.000000) scale(0.100000,-0.100000)"
fill="#000000" stroke="none">
<path d="M0 3330 l0 -3330 6420 0 6420 0 0 3330 0 3330 -6420 0 -6420 0 0
-3330z m6620 370 c167 -13 347 -34 505 -60 72 -12 145 -24 163 -27 18 -3 35
-9 38 -14 3 -5 15 -9 27 -9 24 0 93 -22 103 -33 4 -4 18 -7 30 -7 13 0 26 -4
29 -10 3 -5 17 -10 31 -10 13 0 24 -4 24 -10 0 -5 11 -10 25 -10 14 0 25 -4
25 -9 0 -5 8 -12 18 -14 11 -3 10 -3 -3 -2 -28 4 -119 39 -123 48 -2 4 -21 7
-43 7 -22 0 -47 4 -57 9 -21 11 -79 26 -152 40 -30 5 -79 14 -108 20 -30 6
-69 11 -87 11 -18 0 -55 4 -82 10 -116 23 -431 34 -632 21 -249 -15 -567 -60
-711 -100 -139 -38 -228 -65 -246 -73 -22 -10 -74 -29 -268 -97 -65 -23 -135
-50 -154 -60 l-36 -18 35 -12 c50 -16 258 -46 463 -67 28 -2 55 -9 62 -15 27
-22 657 -60 1729 -105 77 -3 507 -9 955 -14 812 -9 843 -11 1145 -49 116 -15
248 -40 375 -72 47 -11 97 -23 113 -26 15 -3 30 -9 33 -14 3 -5 18 -9 34 -9
16 0 32 -4 35 -10 3 -5 16 -10 29 -10 12 0 26 -4 31 -8 6 -5 30 -15 55 -22 25
-8 61 -22 80 -32 34 -18 34 -18 8 -18 -15 0 -30 5 -33 10 -3 6 -15 10 -26 10
-10 0 -19 5 -19 10 0 6 -10 10 -21 10 -12 0 -49 9 -83 20 -122 39 -277 71
-388 79 -125 9 -346 -2 -377 -18 -11 -6 -35 -11 -55 -11 -19 0 -37 -4 -40 -9
-3 -4 45 -9 107 -9 189 -2 359 -19 412 -42 25 -11 52 -20 59 -20 7 0 48 -11
91 -25 43 -13 82 -22 86 -19 5 3 9 1 9 -5 0 -15 74 -51 104 -51 14 0 28 -4 31
-10 3 -5 17 -10 30 -10 30 0 59 -38 44 -56 -6 -7 -20 -16 -32 -20 -12 -4 -26
-12 -33 -18 -25 -24 -49 -42 -59 -43 -14 -3 -19 -43 -6 -43 6 0 11 -8 11 -17
0 -13 -8 -8 -28 17 -37 48 -119 130 -130 130 -5 0 -20 9 -33 21 -130 114 -330
163 -508 125 -134 -28 -241 -89 -352 -199 -55 -53 -69 -62 -87 -56 -12 5 -22
6 -22 2 0 -3 -6 0 -14 6 -8 7 -20 11 -28 10 -7 -1 -20 0 -28 4 -67 25 -546 68
-619 55 -25 -4 -71 -13 -101 -19 -30 -6 -75 -13 -100 -16 -25 -3 -49 -9 -54
-14 -14 -12 -79 -12 -71 1 3 6 21 10 40 10 19 0 37 5 40 10 3 6 19 10 35 10
16 0 35 6 42 14 8 8 23 16 34 18 18 5 18 5 0 13 -11 5 -26 4 -37 -3 -11 -7
-20 -8 -24 -2 -3 6 -30 10 -58 10 -37 0 -48 3 -37 10 8 5 25 7 37 3 16 -3 23
-1 23 9 0 12 -12 13 -72 5 -53 -7 -81 -6 -110 4 -33 11 -41 10 -48 -2 -7 -10
-14 -11 -27 -3 -18 10 -36 10 -268 1 -66 -3 -205 -8 -310 -11 -104 -4 -246 -8
-315 -11 -129 -4 -451 8 -625 24 -257 24 -267 24 -275 11 -13 -21 15 -40 59
-40 22 0 42 -4 46 -9 3 -5 30 -13 60 -16 30 -4 55 -11 55 -16 0 -5 22 -9 49
-9 28 0 53 -4 56 -10 8 -13 -87 -14 -101 -1 -13 13 -204 21 -204 8 0 -6 16 -7
40 -4 23 3 40 1 43 -6 3 -10 173 -50 292 -68 33 -5 83 -13 110 -19 28 -6 75
-14 105 -20 30 -5 80 -14 110 -20 55 -11 132 -24 225 -40 28 -4 82 -13 120
-20 86 -14 160 -25 288 -41 53 -7 97 -16 97 -21 0 -4 39 -8 88 -9 69 0 82 -2
62 -10 -25 -11 -56 -9 -210 10 -47 6 -119 15 -160 20 -78 9 -271 39 -425 65
-94 16 -377 64 -455 76 -25 5 -99 18 -165 30 -233 42 -241 42 -430 20 -117
-14 -121 -14 -250 -2 -130 13 -257 34 -340 57 -152 42 -193 54 -240 69 -168
52 -360 89 -526 100 -41 3 -86 9 -100 15 -14 5 -72 12 -130 16 -57 4 -158 14
-224 22 -66 8 -145 16 -175 17 -180 9 -554 37 -604 46 -33 5 -127 14 -210 20
-206 15 -260 31 -206 60 11 6 20 20 20 30 0 18 11 25 34 21 4 -1 13 3 20 8 6
5 92 12 191 16 142 6 199 13 270 32 50 13 110 28 135 33 49 9 102 22 165 40
63 17 69 18 88 19 37 2 5 19 -55 30 -80 14 -307 31 -414 31 -46 0 -86 5 -89
10 -7 11 -9 11 420 15 400 4 769 32 995 75 52 10 120 21 150 25 30 3 78 12
105 20 28 7 104 23 170 35 204 36 278 50 330 61 60 12 206 46 255 59 45 12
151 37 215 50 114 25 132 29 170 39 70 19 288 47 465 60 154 11 289 12 430 1z
m1087 -236 c-3 -3 -12 -4 -19 -1 -8 3 -5 6 6 6 11 1 17 -2 13 -5z m72 -30 c18
-9 30 -18 27 -21 -3 -3 -20 4 -38 16 -39 25 -34 27 11 5z m66 -34 c3 -5 2 -10
-4 -10 -5 0 -13 5 -16 10 -3 6 -2 10 4 10 5 0 13 -4 16 -10z m42 -16 c-3 -3
-12 -4 -19 -1 -8 3 -5 6 6 6 11 1 17 -2 13 -5z m122 -53 c20 -10 68 -33 106
-51 142 -66 160 -75 175 -86 8 -7 24 -14 35 -17 17 -4 17 -5 -4 -6 -13 0 -40
7 -60 18 -20 10 -67 34 -106 52 -38 19 -71 37 -73 41 -2 5 -11 8 -20 8 -9 0
-28 9 -42 20 -14 11 -30 20 -37 20 -12 0 -30 20 -17 20 3 0 23 -8 43 -19z
m358 -177 c-3 -3 -12 -4 -19 -1 -8 3 -5 6 6 6 11 1 17 -2 13 -5z m1816 -351
c-7 -2 -19 -2 -25 0 -7 3 -2 5 12 5 14 0 19 -2 13 -5z m44 -19 c-3 -3 -12 -4
-19 -1 -8 3 -5 6 6 6 11 1 17 -2 13 -5z m40 -20 c-3 -3 -12 -4 -19 -1 -8 3 -5
6 6 6 11 1 17 -2 13 -5z m-4027 -164 c0 -5 -18 -10 -40 -10 -22 0 -40 5 -40
10 0 6 18 10 40 10 22 0 40 -4 40 -10z m130 -20 c20 -6 14 -8 -27 -9 -28 -1
-55 4 -58 9 -7 12 48 12 85 0z m1355 0 c-3 -5 -26 -10 -51 -10 -28 0 -43 4
-39 10 3 6 26 10 51 10 28 0 43 -4 39 -10z m-1170 -20 c4 -6 -17 -10 -54 -10
-34 0 -61 4 -61 10 0 6 24 10 54 10 30 0 58 -4 61 -10z m1055 0 c0 -5 -25 -10
-56 -10 -34 0 -53 4 -49 10 3 6 28 10 56 10 27 0 49 -4 49 -10z m-4797 -7
c-13 -2 -35 -2 -50 0 -16 2 -5 4 22 4 28 0 40 -2 28 -4z m467 0 c0 -5 -55 -7
-122 -5 -182 4 -193 9 -25 11 81 0 147 -2 147 -6z m208 -13 c-15 -4 -51 -4
-80 0 -51 7 -50 8 27 8 56 0 72 -2 53 -8z m3369 -4 c3 -3 -46 -6 -111 -6 -64
0 -115 4 -112 9 6 10 213 7 223 -3z m583 4 c0 -6 -35 -10 -87 -9 -60 1 -80 4
-63 9 37 12 150 12 150 0z m-284 -22 c4 -5 -33 -8 -82 -7 -49 0 -81 3 -72 7
24 10 144 9 154 0z m-1701 -133 l180 -14 -350 5 c-462 8 -626 21 -270 22 143
0 341 -6 440 -13z m2157 -55 c-24 -3 -73 -3 -110 0 -60 6 -56 7 43 7 76 0 97
-2 67 -7z m206 -17 c-15 -2 -42 -2 -60 0 -18 2 -6 4 27 4 33 0 48 -2 33 -4z
m-4358 -78 c1 -6 -41 -17 -92 -25 -51 -8 -99 -19 -105 -23 -22 -14 -36 3 -16
19 15 11 -6 13 -156 14 -96 0 -171 3 -167 8 4 4 96 9 204 12 272 7 332 6 332
-5z m-252 -69 c-10 -7 -18 -18 -18 -24 0 -15 -89 -27 -102 -14 -6 6 9 16 49
30 70 25 96 28 71 8z m256 -11 c-4 -10 -15 -12 -35 -8 -20 4 -29 1 -29 -7 0
-10 -3 -10 -14 -1 -11 10 -17 8 -29 -9 -13 -19 -15 -20 -21 -3 -7 16 -9 16
-25 -6 -12 -16 -21 -20 -25 -12 -4 6 -12 11 -18 11 -10 0 -9 -11 7 -55 5 -15
1 -14 -19 8 -26 28 -50 29 -39 1 4 -12 0 -14 -20 -9 -20 5 -25 3 -24 -12 1
-12 -4 -17 -15 -15 -13 2 -18 -4 -18 -18 0 -18 -4 -20 -22 -14 -20 6 -21 5
-10 -9 8 -9 22 -19 32 -22 19 -6 19 -18 -3 -62 -12 -26 -39 -31 -35 -6 2 10
-6 19 -24 23 -24 7 -26 6 -23 -19 2 -14 4 -34 4 -43 1 -14 10 -18 45 -18 25 0
48 5 51 10 4 7 13 6 27 -1 17 -9 25 -6 47 15 36 34 55 34 47 0 l-7 -26 130 4
c71 1 133 0 136 -4 17 -17 -11 -29 -59 -27 -28 2 -93 2 -143 1 -90 -2 -93 -3
-99 -27 -9 -36 -54 -36 -54 0 0 17 -4 23 -15 19 -8 -3 -14 -9 -13 -12 1 -4 -2
-25 -7 -47 -7 -35 -9 -37 -16 -17 -5 12 -4 33 1 48 13 33 13 34 -5 34 -8 0
-16 -8 -16 -17 -1 -17 -2 -17 -6 0 -3 10 -14 17 -29 17 -14 0 -27 -7 -31 -17
-4 -10 -14 -23 -22 -30 -14 -11 -14 -12 1 -13 9 0 20 4 23 10 3 5 17 9 30 8
18 -2 25 -8 25 -23 0 -16 -2 -17 -10 -5 -8 12 -10 11 -10 -7 0 -14 -6 -23 -15
-23 -8 0 -15 6 -15 14 0 9 -8 12 -25 8 -20 -3 -23 -7 -14 -18 6 -8 19 -14 29
-14 13 0 17 -6 13 -20 -5 -18 0 -20 41 -20 25 0 46 5 46 10 0 7 7 7 21 0 23
-13 35 -8 24 9 -3 6 -11 9 -16 6 -5 -4 -9 3 -9 14 0 17 6 21 35 21 27 0 35 -4
35 -18 0 -26 20 -42 52 -42 29 0 38 -17 15 -26 -8 -3 -12 -16 -9 -33 3 -22 13
-33 40 -45 l37 -16 -47 5 c-26 2 -49 1 -52 -4 -3 -5 -36 -6 -74 -3 -50 3 -76
0 -98 -11 -17 -9 -36 -12 -44 -7 -8 4 -34 11 -57 15 -48 8 -63 20 -33 28 23 6
25 15 5 41 -9 12 -30 19 -67 22 -29 2 -75 8 -103 13 l-50 9 66 1 c37 0 70 6
77 13 10 10 15 10 20 1 5 -8 12 -2 21 18 8 19 18 28 27 25 8 -3 14 1 14 8 0
11 -27 16 -112 22 -62 4 -119 7 -127 5 -7 -1 -10 2 -6 8 3 6 38 11 80 11 87 0
128 12 123 38 -2 13 -16 18 -58 22 -44 4 -50 6 -30 12 14 4 42 8 63 8 25 0 37
4 37 14 0 17 39 48 51 40 4 -2 13 6 19 18 11 23 11 23 -5 3 -17 -20 -17 -20
-10 3 7 23 5 23 -47 22 -29 -2 -60 0 -68 3 -8 4 -31 8 -50 9 -19 2 8 7 60 11
157 13 169 16 214 56 23 21 60 48 84 61 46 26 52 36 25 43 -10 3 5 5 32 6 28
1 77 8 110 15 84 19 116 20 109 1z m216 -9 c143 -44 267 -143 317 -252 45 -99
35 -259 -21 -329 -18 -23 -28 -27 -49 -21 -38 9 -34 27 4 19 29 -5 31 -4 24
16 -4 14 -3 21 5 19 7 -2 15 3 17 10 3 6 0 12 -7 12 -6 0 -9 4 -5 10 3 5 12 7
20 3 17 -6 21 12 5 22 -6 4 -8 11 -4 16 3 5 10 7 15 4 5 -4 9 0 9 9 0 8 -6 16
-12 19 -9 3 -7 9 6 20 19 14 18 15 -17 19 -25 3 -38 0 -42 -10 -8 -22 -18 -7
-11 16 6 17 13 19 46 15 26 -4 40 -2 40 6 0 6 -7 11 -15 11 -8 0 -15 5 -15 10
0 6 5 10 10 10 6 0 10 5 10 10 0 6 -7 10 -15 10 -18 0 -19 12 -3 28 9 9 8 12
-6 12 -13 0 -16 5 -11 20 5 14 2 20 -10 20 -12 0 -15 6 -10 20 3 11 3 20 -2
20 -27 -1 -52 -15 -58 -33 -6 -22 -6 -22 -15 -2 -8 18 -9 18 -9 2 -1 -10 -5
-15 -11 -12 -14 9 -12 46 3 43 19 -4 77 23 71 34 -3 5 -15 6 -26 2 -17 -5 -19
-3 -13 15 5 17 2 21 -15 21 -16 0 -20 4 -16 16 4 11 0 14 -17 12 -17 -2 -21 1
-19 15 2 14 -2 18 -20 15 -14 -2 -23 2 -23 11 0 8 -5 16 -11 18 -10 3 -24 -19
-39 -62 l-7 -20 -8 20 c-7 17 -9 17 -9 3 -1 -27 -21 -21 -21 6 0 15 7 26 20
29 20 5 37 33 26 44 -3 3 -12 0 -21 -7 -12 -10 -16 -9 -21 4 -4 11 -13 14 -30
10 -18 -5 -24 -2 -24 10 0 9 -4 16 -10 16 -5 0 -10 -4 -10 -10 0 -5 -7 -10
-15 -10 -8 0 -15 5 -15 10 0 15 -30 12 -30 -2 -1 -8 -6 -6 -14 5 -24 31 -36
20 -36 -34 0 -42 -2 -49 -13 -40 -8 6 -17 8 -20 4 -4 -3 -7 -1 -7 5 0 6 5 14
11 18 7 4 9 21 5 42 l-5 35 77 -6 c42 -4 97 -13 122 -21z m-366 -92 c7 -18 0
-34 -15 -34 -5 0 -9 11 -9 25 0 28 15 34 24 9z m1066 -119 l0 -105 58 0 57 0
89 105 90 106 55 -3 c40 -2 56 -7 58 -18 2 -8 -40 -67 -92 -130 -52 -63 -95
-117 -95 -121 0 -3 43 -56 95 -117 52 -61 95 -121 95 -132 0 -18 -6 -20 -64
-20 l-63 0 -84 105 -84 105 -55 -2 -55 -3 3 -102 2 -103 -62 0 -63 0 3 270 3
270 54 0 55 0 0 -105z m905 95 c3 -5 14 -10 23 -9 14 0 14 2 -3 10 -16 7 -14
8 10 4 38 -7 76 -35 92 -66 9 -17 13 -90 13 -246 l0 -223 -60 0 -60 0 0 85 0
85 -155 0 -155 0 0 -85 0 -85 -61 0 -60 0 3 229 c3 215 4 231 24 258 11 15 32
34 45 40 30 16 335 18 344 3z m260 0 c-3 -5 -3 -10 2 -11 4 0 17 -2 28 -5 28
-5 164 -13 258 -15 42 -1 80 -5 83 -10 3 -5 10 -7 15 -3 21 12 99 16 99 4 0
-6 -6 -8 -12 -4 -8 4 -10 3 -5 -2 5 -5 14 -9 20 -9 9 0 13 -58 15 -208 l2
-208 -29 -30 -29 -29 -241 0 -241 0 0 270 c0 266 0 270 21 270 11 0 17 -4 14
-10z m650 -48 c-3 -9 -3 -13 1 -9 4 4 13 -1 21 -11 13 -15 13 -15 4 5 -8 15
-8 24 -1 28 6 4 9 1 8 -7 -3 -15 15 -16 262 -18 85 -1 163 2 173 5 13 6 17 2
17 -19 l0 -26 -209 0 c-116 0 -212 -3 -214 -7 -2 -5 -2 -77 1 -161 l4 -153
209 3 c234 3 219 9 219 -74 l0 -38 -240 0 -240 0 -32 29 -33 29 -3 194 c-2
180 -1 195 18 226 20 32 47 35 35 4z m635 -37 c8 0 21 5 29 9 11 7 13 5 7 -10
-6 -15 -5 -17 5 -6 8 7 42 12 93 12 43 0 76 -3 72 -7 -4 -4 -39 -7 -79 -8
l-72 -1 -3 -72 -3 -72 161 0 160 0 0 64 c0 72 6 78 66 70 33 -4 36 -2 31 16
-3 11 -1 18 4 14 5 -3 9 -106 9 -230 l0 -224 -55 0 -55 0 0 85 0 85 -157 0
-158 0 4 -85 3 -85 -61 0 -61 0 0 231 c0 139 4 228 9 224 5 -3 13 0 17 7 6 9
9 8 13 -3 3 -8 13 -14 21 -14z m263 -2 c-7 -2 -21 -2 -30 0 -10 3 -4 5 12 5
17 0 24 -2 18 -5z m408 -44 c5 -7 9 -28 9 -46 0 -64 -3 -63 165 -63 l153 0 6
31 c3 17 6 46 7 63 0 17 3 25 6 19 6 -15 69 -17 78 -3 26 42 35 -97 10 -156
-10 -25 -26 -40 -55 -52 -22 -9 -40 -21 -40 -25 0 -5 25 -37 55 -70 74 -84 73
-97 -9 -97 l-64 0 -73 90 -73 90 -78 0 -78 0 0 -90 0 -90 -60 0 -60 0 0 203
c0 112 3 206 6 209 11 12 86 2 95 -13z m559 -11 c0 -6 9 -8 20 -5 11 3 20 1
20 -4 0 -4 7 -6 15 -3 11 5 17 -3 21 -25 l7 -31 179 0 180 0 34 -34 c33 -33
34 -36 34 -120 0 -159 -11 -166 -270 -166 -208 0 -236 6 -258 55 -7 14 -12 44
-12 65 l0 40 54 0 c49 0 55 -2 58 -22 3 -23 5 -23 158 -23 l155 0 3 48 3 47
-166 0 c-186 0 -224 9 -249 59 -22 41 -22 143 -1 135 8 -4 15 -11 15 -16z
m-4943 -178 c1 -11 -2 -20 -8 -20 -5 0 -9 9 -9 20 0 11 4 20 8 20 4 0 8 -9 9
-20z m771 -123 c3 -21 -1 -27 -17 -27 -25 0 -34 14 -26 41 10 29 39 20 43 -14z
m-971 -23 c-3 -3 -12 -4 -19 -1 -8 3 -5 6 6 6 11 1 17 -2 13 -5z m721 -6 c-6
-16 -32 -22 -64 -14 -37 10 -19 26 27 26 28 0 39 -4 37 -12z m-449 -104 c2 -2
-5 -4 -17 -4 -11 0 -24 -4 -27 -10 -3 -5 -20 -8 -38 -6 -93 12 -82 40 11 30
37 -3 69 -8 71 -10z m461 -59 c8 -5 9 -10 1 -14 -14 -9 -453 -4 -511 6 l-45 7
50 6 c71 8 490 4 505 -5z m3732 -4 c3 -1 54 -37 112 -81 59 -44 110 -80 115
-80 4 0 6 34 3 76 -5 85 0 94 56 94 l32 0 0 -100 c0 -73 -3 -100 -12 -100 -9
0 -8 -4 2 -10 20 -13 4 -13 -19 0 -11 5 -43 11 -72 14 -30 2 -55 4 -56 5 -2 1
-4 0 -5 -1 -2 -1 -36 22 -76 51 -41 29 -76 51 -78 49 -2 -3 -5 -14 -7 -26 -5
-30 -14 -37 -53 -37 l-34 0 0 77 0 76 43 -3 c23 -2 45 -4 49 -4z m763 -21 l0
-25 -142 -3 c-143 -3 -143 -3 -143 -26 0 -24 1 -24 113 -22 l112 1 0 -25 0
-25 -112 1 -113 1 -1 -26 c-1 -14 -1 -29 0 -33 0 -5 -3 -8 -9 -8 -5 0 -7 -7
-3 -16 4 -12 0 -15 -18 -12 -13 1 -30 10 -37 18 -12 13 -13 13 -8 -2 3 -10 1
-18 -4 -18 -6 0 -10 51 -10 125 l0 125 188 -2 187 -3 0 -25z m425 0 l0 -30
-80 0 -80 0 0 -95 0 -95 -45 0 -45 0 0 95 0 95 -80 0 -80 0 0 30 0 30 205 0
205 0 0 -30z m-4764 -55 c-11 -8 -22 -12 -25 -9 -6 6 19 24 34 24 6 -1 1 -7
-9 -15z m-231 -15 c0 -10 -9 -15 -27 -14 -16 0 -128 1 -250 2 -122 1 -218 5
-214 10 6 6 386 21 466 18 15 -1 25 -7 25 -16z m195 2 c0 -10 -114 -44 -165
-49 -22 -2 -46 -6 -52 -8 -7 -2 -13 1 -13 9 0 7 6 13 13 13 35 0 178 27 183
34 6 11 34 12 34 1z"/>
<path d="M5197 3132 c-20 -2 -35 -7 -32 -13 4 -5 -15 -9 -42 -10 -26 0 -59 -2
-73 -4 -14 -1 -74 -6 -134 -10 -72 -5 -115 -12 -124 -21 -7 -8 -19 -11 -25 -7
-8 5 -6 9 6 11 21 4 23 22 2 22 -9 0 -18 -7 -21 -15 -4 -8 -14 -15 -23 -15
-46 -2 77 -32 164 -41 55 -6 136 -14 180 -19 44 -5 181 -16 305 -24 124 -9
239 -20 256 -26 21 -7 48 -7 85 0 68 14 394 0 949 -39 102 -8 181 2 248 30 12
5 34 14 50 20 15 6 35 15 44 20 10 5 27 9 37 9 11 0 23 5 26 10 3 6 17 10 30
10 13 0 26 4 29 9 12 18 -87 30 -294 36 -201 5 -305 10 -770 36 -398 22 -809
37 -873 31z"/>
<path d="M3258 3093 c7 -3 16 -2 19 1 4 3 -2 6 -13 5 -11 0 -14 -3 -6 -6z"/>
<path d="M3190 3080 c-22 -7 -21 -8 13 -9 23 -1 36 3 32 9 -7 11 -10 11 -45 0z"/>
<path d="M7235 3031 c-11 -5 -34 -10 -50 -10 -17 -1 -35 -5 -40 -9 -6 -5 -30
-15 -55 -22 -56 -17 -133 -62 -132 -75 1 -6 48 -13 104 -17 57 -3 150 -11 208
-17 58 -6 133 -12 168 -12 35 -1 58 -5 52 -9 -33 -20 76 -20 145 0 22 6 51 14
65 16 14 3 34 9 45 14 11 4 81 27 155 50 74 23 144 46 155 51 11 4 30 11 43
14 12 4 22 11 22 16 0 5 -1 9 -2 9 -95 7 -869 7 -883 1z"/>
<path d="M8380 3031 c-14 -5 -56 -14 -95 -21 -151 -26 -257 -56 -497 -141
-119 -42 -100 -47 176 -43 235 3 334 13 375 39 5 3 17 -2 25 -11 15 -14 20
-11 17 9 -1 5 2 6 6 4 5 -3 60 1 123 9 63 8 140 16 170 19 30 3 91 12 135 20
74 14 145 27 301 54 33 6 78 11 100 11 49 0 76 15 46 24 -76 25 -822 47 -882
27z"/>
<path d="M6229 2736 c12 -14 37 -16 195 -14 l181 1 -170 7 c-93 4 -181 10
-195 15 -22 7 -23 6 -11 -9z"/>
<path d="M7438 2743 c7 -3 16 -2 19 1 4 3 -2 6 -13 5 -11 0 -14 -3 -6 -6z"/>
<path d="M7885 2700 c-3 -5 -2 -10 4 -10 5 0 13 5 16 10 3 6 2 10 -4 10 -5 0
-13 -4 -16 -10z"/>
<path d="M5733 2643 c9 -2 23 -2 30 0 6 3 -1 5 -18 5 -16 0 -22 -2 -12 -5z"/>
<path d="M3055 1630 c-3 -6 -3 -19 0 -30 7 -23 40 -27 49 -5 8 22 53 19 59 -4
4 -15 13 -18 53 -17 47 1 51 4 46 35 -3 16 -63 31 -82 21 -13 -7 -21 -7 -25 0
-8 13 -92 13 -100 0z"/>
<path d="M2980 1625 c0 -5 5 -17 10 -25 5 -8 10 -10 10 -5 0 6 -5 17 -10 25
-5 8 -10 11 -10 5z"/>
<path d="M4990 1860 l0 -70 154 0 153 0 6 62 c3 34 3 66 1 70 -3 4 -75 8 -160
8 l-154 0 0 -70z"/>
<path d="M5623 1818 c4 -62 7 -134 7 -161 l0 -48 153 3 152 3 3 158 3 157
-162 0 -162 0 6 -112z"/>
</g>
</svg>
